<svg width="212" height="99" viewBox="0 0 212 99" fill="none" xmlns="http://www.w3.org/2000/svg">
<path d="M28.3659 26.6448C26.6542 27.2576 25.1327 28.1452 23.8014 29.3708C22.5124 30.5965 21.4558 32.1179 20.6528 33.893C19.8709 35.6892 19.4906 37.7812 19.4906 40.1903V57.4971H15.391C14.0597 57.4971 12.7707 57.2858 11.5662 56.8209C10.3617 56.3772 9.30507 55.7221 8.41754 54.8345C7.53 53.9681 6.7904 52.8693 6.24097 51.5803H1.73991C1.90897 52.2353 2.12028 52.8482 2.37387 53.4187C3.15574 55.2149 4.21233 56.6941 5.52249 57.8986C6.83266 59.1243 8.35414 60.0329 10.0447 60.6035C11.7563 61.2163 13.5314 61.5122 15.3699 61.5122H23.7169V40.1903C23.7169 38.4363 23.9916 36.936 24.5199 35.6258C25.0482 34.3368 25.7667 33.2379 26.6542 32.3715C27.5629 31.5263 28.6195 30.8712 29.8028 30.4274C31.0073 29.9836 32.2752 29.7512 33.6277 29.7512V25.7573C31.8315 25.7784 30.0776 26.0743 28.3659 26.6448Z" fill="black"/>
<path d="M166.821 57.4972V61.5545C164.982 61.5545 163.229 61.2587 161.538 60.6459C159.805 60.0753 158.305 59.1666 157.016 57.9621C155.832 56.8421 154.86 55.5108 154.1 53.9471C153.635 54.6867 153.106 55.3629 152.557 56.018C151.12 57.6663 149.324 58.9976 147.126 60.0119C144.95 61.0262 142.414 61.5545 139.476 61.5545H131.425C129.587 61.5545 127.833 61.2587 126.121 60.6459C124.41 60.0753 122.888 59.1666 121.578 57.9621C120.289 56.7365 119.232 55.215 118.429 53.4399C117.669 51.6437 117.267 49.5517 117.182 47.1004V17.4949H121.472V47.0793C121.472 48.8121 121.747 50.3336 122.318 51.6437C122.867 52.9328 123.564 54.0105 124.452 54.898C125.382 55.7644 126.417 56.4406 127.6 56.8844C128.805 57.3071 130.073 57.5184 131.425 57.5184H139.476C141.738 57.5184 143.682 57.1169 145.33 56.3139C146.978 55.5109 148.352 54.4543 149.43 53.1652C150.507 51.8551 151.289 50.397 151.796 48.7698C152.346 47.1216 152.599 45.4522 152.599 43.7405C152.599 42.0077 152.325 40.296 151.796 38.6266C151.289 36.9572 150.486 35.4568 149.387 34.1678C148.31 32.8576 146.957 31.8222 145.309 31.0192C143.682 30.2162 141.738 29.7935 139.476 29.7724H131.425L129.671 25.8208L166.779 4.39322V9.35917L138.272 25.8208H139.476C142.372 25.8208 144.928 26.3279 147.126 27.3634C149.324 28.3777 151.12 29.709 152.557 31.3784C154.015 33.0478 155.093 34.9708 155.811 37.1051C156.551 39.2817 156.91 41.4794 156.91 43.7405V47.0793C156.91 48.8121 157.185 50.3336 157.713 51.6437C158.241 52.9328 158.96 54.0105 159.869 54.898C160.777 55.7644 161.834 56.4195 163.038 56.8421C164.222 57.2859 165.468 57.4972 166.821 57.4972Z" fill="black"/>
<path d="M112.724 43.7404C112.724 44.5857 112.66 45.4309 112.576 46.255C112.407 47.6286 112.111 49.0022 111.646 50.3335C110.928 52.4678 109.85 54.3485 108.392 56.039C107.8 56.7153 107.145 57.3492 106.426 57.9198C105.412 58.7439 104.25 59.4412 102.961 60.0329C101.524 60.7091 99.939 61.1529 98.2062 61.3854V57.2647C99.3051 57.0745 100.298 56.7575 101.186 56.3138C102.475 55.6798 103.595 54.9191 104.525 53.9893C104.673 53.8413 104.82 53.6934 104.947 53.5455L104.968 53.5244C105.074 53.4187 105.18 53.2919 105.285 53.1651C106.363 51.855 107.145 50.3969 107.673 48.7697C108.18 47.1215 108.455 45.4521 108.476 43.7404C108.476 42.0076 108.202 40.2959 107.673 38.6265C107.166 36.9571 106.363 35.4567 105.264 34.1677C104.187 32.8575 102.834 31.8221 101.186 31.0191C100.193 30.5331 99.0726 30.1738 97.8259 29.9836H97.7836C97.3821 29.9202 96.9383 29.878 96.5157 29.8357C96.3678 29.8146 96.2198 29.8146 96.0719 29.8146C95.9451 29.8146 95.8395 29.7934 95.7127 29.7934C95.5648 29.7934 95.438 29.7723 95.2901 29.7723H95.2267C95.0365 29.7723 94.8674 29.7723 94.6984 29.7723C94.487 29.7723 94.2969 29.7934 94.1067 29.7934C93.8954 29.8146 93.684 29.8146 93.4727 29.8568C93.1135 29.8991 92.7542 29.9414 92.4161 30.0048C91.3807 30.1949 90.4086 30.4697 89.5211 30.8712C89.1196 31.0613 88.7181 31.2727 88.3377 31.484C88.1475 31.5896 87.9573 31.7164 87.7672 31.8221C87.7249 31.8432 87.6826 31.8855 87.6404 31.9066C86.774 32.4772 86.0132 33.1534 85.3581 33.9141C85.0834 34.2311 84.8299 34.5692 84.5974 34.9285L84.5763 34.9496C83.8367 35.985 83.2661 37.1473 82.8435 38.4152C82.294 40.0846 81.9982 41.8597 81.9982 43.7404C81.9982 45.4943 82.2729 47.1848 82.8012 48.8331C83.0759 49.6573 83.3929 50.418 83.7944 51.1365C84.1959 51.8761 84.6819 52.5734 85.2314 53.2074C85.9921 54.1372 86.9008 54.9191 87.9573 55.5741C88.4011 55.8489 88.866 56.1024 89.352 56.3349C90.3452 56.7998 91.4229 57.1168 92.6063 57.3069C92.395 57.5183 92.1626 57.7084 91.9301 57.8986C91.4441 58.279 90.9369 58.6382 90.4086 58.9763C90.2607 59.082 90.0916 59.1665 89.9437 59.2511C89.8803 59.2722 89.8381 59.3145 89.7747 59.3567C89.6268 59.4412 89.4577 59.5258 89.3098 59.6103C89.2886 59.6314 89.2464 59.6314 89.2252 59.6526C89.1407 59.6948 89.0562 59.7371 88.9928 59.7793C88.9083 59.8216 88.8026 59.8639 88.7181 59.9273C88.6336 59.9695 88.5702 59.9907 88.4856 60.0329C88.38 60.0963 88.2532 60.1386 88.1264 60.202C87.8728 60.3076 87.5981 60.4344 87.3234 60.519C87.2177 60.5612 87.1121 60.6035 87.0064 60.6246C86.8796 60.6669 86.7528 60.7092 86.626 60.7514C86.4993 60.7937 86.3513 60.8359 86.2034 60.8782C86.0555 60.9205 85.9287 60.9627 85.7808 60.9839C85.6329 61.0261 85.4849 61.0473 85.337 61.0895C85.0412 61.1529 84.7242 61.2163 84.4283 61.2797C84.2804 61.3008 84.1114 61.322 83.9635 61.3431C83.9212 61.3431 83.8578 61.3642 83.8155 61.3642C83.7733 61.3642 83.7099 61.3854 83.6676 61.3854C83.4563 61.4065 83.2238 61.4488 83.0125 61.4699C82.8857 61.491 82.7378 61.491 82.611 61.491C82.5476 61.491 82.4631 61.5122 82.3997 61.5122C82.3786 61.5122 82.3574 61.5122 82.3363 61.5122C82.2518 61.5122 82.1461 61.5333 82.0616 61.5333C81.9559 61.5333 81.8503 61.5544 81.7446 61.5544C81.639 61.5544 81.5122 61.5544 81.4065 61.5755C81.2163 61.5755 81.0473 61.5755 80.8571 61.5755H77.7296C75.8911 61.5755 74.1372 61.2797 72.4255 60.6669C70.7139 60.0963 69.1924 59.1877 67.8611 57.9832C67.8399 57.962 67.8399 57.962 67.8399 57.962C66.572 56.7364 65.5155 55.236 64.7125 53.461C63.9517 51.6648 63.5502 49.5727 63.4657 47.1215V5.02707H67.7554V47.0792C67.7554 48.812 68.0301 50.3335 68.6007 51.6436C69.129 52.9327 69.8475 54.0104 70.735 54.8979C71.6437 55.7643 72.7002 56.4405 73.8836 56.8843C75.0881 57.3069 76.356 57.5183 77.7085 57.5183H83.5408C83.4774 57.4549 83.3929 57.3915 83.3295 57.3281C82.8857 56.9266 82.442 56.4828 82.0616 56.039C81.3854 55.236 80.7726 54.3908 80.2443 53.4821C79.6737 52.51 79.1877 51.4535 78.8073 50.3546C78.2156 48.5584 77.8564 46.7411 77.7719 44.8815V43.7615C77.7719 41.268 78.1734 38.9223 78.9764 36.7669C79.7794 34.5903 80.9416 32.6885 82.4631 31.0825C83.9846 29.4765 85.823 28.2086 87.9785 27.2576C88.9505 26.835 89.9649 26.518 91.0214 26.2856C91.1694 26.2644 91.3384 26.2222 91.4863 26.2011C91.8667 26.1377 92.2471 26.0743 92.6275 26.032C93.0078 25.9897 93.4093 25.9475 93.8108 25.9263C94.0433 25.9052 94.2969 25.9052 94.5504 25.8841C94.7829 25.8841 95.0153 25.8629 95.2478 25.8629H95.3112C95.607 25.8629 95.9029 25.8629 96.1987 25.8841C96.3466 25.8841 96.4946 25.9052 96.6425 25.9052C96.7059 25.9052 96.7904 25.9052 96.8538 25.9263H96.8961C97.6145 25.9686 98.2908 26.0531 98.967 26.1799C100.404 26.4335 101.756 26.8561 102.961 27.4267C105.159 28.441 106.955 29.7723 108.392 31.4417C109.829 33.1111 110.928 35.0341 111.646 37.1684C112.111 38.5208 112.428 39.8944 112.597 41.2891C112.66 42.0498 112.724 42.8951 112.724 43.7404Z" fill="black"/>
<path d="M182.522 57.4971H179.817C180.028 57.4971 180.239 57.4971 180.43 57.476C180.599 57.476 180.789 57.4548 180.958 57.4548C181.042 57.4548 181.106 57.4549 181.19 57.4337C181.317 57.4337 181.444 57.4126 181.55 57.4126C181.634 57.4126 181.698 57.3915 181.782 57.3915C181.951 57.3703 182.12 57.3492 182.289 57.3281H182.31C182.395 57.3703 182.458 57.4337 182.522 57.4971Z" fill="black"/>
<path d="M211.747 43.7404C211.747 44.5857 211.684 45.4309 211.599 46.2551C211.43 47.6286 211.134 49.0022 210.669 50.3335C209.951 52.4678 208.873 54.3485 207.415 56.039C206.823 56.7153 206.168 57.3492 205.45 57.9198L203.527 53.9893C203.675 53.8413 203.823 53.6934 203.971 53.5244C204.076 53.4187 204.182 53.2919 204.287 53.1651C205.365 51.855 206.147 50.3969 206.675 48.7697C207.183 47.1215 207.457 45.4521 207.478 43.7404C207.478 42.0076 207.204 40.2959 206.675 38.6265C206.168 36.9571 205.365 35.4567 204.266 34.1677C203.189 32.8575 201.836 31.8221 200.188 31.0191C199.195 30.5331 198.075 30.1738 196.828 29.9836H196.807C196.405 29.9202 195.962 29.878 195.539 29.8357C195.137 29.8146 194.736 29.7934 194.313 29.7723C193.912 29.7723 193.51 29.7934 193.109 29.8146C192.897 29.8357 192.686 29.8357 192.475 29.878C192.116 29.9202 191.756 29.9625 191.418 30.0259C191.165 30.0682 190.911 30.1316 190.658 30.1738C189.897 30.3429 189.199 30.5753 188.544 30.8923C188.143 31.0825 187.741 31.2938 187.361 31.5051C187.171 31.6108 186.981 31.7376 186.79 31.8432C186.748 31.8644 186.706 31.9066 186.664 31.9277C185.797 32.4983 185.036 33.1745 184.381 33.9353C184.107 34.2522 183.853 34.5903 183.621 34.9496L183.6 34.9707C182.86 36.0062 182.289 37.1684 181.867 38.4363C181.317 40.1057 181.021 41.8808 181.021 43.7615C181.021 45.5154 181.296 47.206 181.824 48.8543C182.099 49.6784 182.416 50.4391 182.818 51.1576C183.219 51.8972 183.705 52.5946 184.255 53.2285C185.015 54.1583 185.924 54.9402 186.981 55.5953C187.002 55.5741 187.044 55.553 187.065 55.553C187.086 55.5319 187.129 55.5107 187.15 55.4896C187.298 55.4051 187.424 55.2994 187.551 55.2149C188.122 54.8134 188.65 54.3485 189.136 53.8625C189.242 53.7568 189.347 53.63 189.453 53.5244C189.559 53.4187 189.664 53.2919 189.749 53.1651C190.045 52.8059 190.341 52.4255 190.594 52.024C190.679 51.8972 190.763 51.7704 190.848 51.6225C191.038 51.3055 191.228 50.9674 191.376 50.6293C191.524 50.3335 191.651 50.0165 191.778 49.6995C191.904 49.4037 192.01 49.0867 192.116 48.7697C192.137 48.7275 192.137 48.6852 192.158 48.6429C192.179 48.5584 192.2 48.495 192.221 48.4105C192.242 48.326 192.285 48.2414 192.306 48.1358C192.327 48.0513 192.348 47.9879 192.369 47.9033C192.39 47.8188 192.411 47.7554 192.433 47.6709C192.707 46.572 192.876 45.4943 192.919 44.3743C192.919 44.2475 192.94 44.1208 192.94 43.994C192.94 43.9094 192.94 43.8249 192.94 43.7404C192.94 43.5713 192.94 43.3811 192.94 43.2121L195.285 41.6061L196.955 40.465C196.997 40.7185 197.018 40.9721 197.06 41.2257C197.166 42.071 197.208 42.8951 197.208 43.7404C197.208 44.5857 197.145 45.4309 197.06 46.2551V46.2762C196.891 47.6498 196.596 49.0022 196.152 50.3335C195.708 51.6225 195.137 52.827 194.44 53.947C193.975 54.6866 193.447 55.3628 192.897 56.0179C192.813 56.1024 192.728 56.2081 192.665 56.2926C192.538 56.4405 192.411 56.5673 192.264 56.7153C192.116 56.8632 191.989 56.99 191.841 57.1168C191.778 57.1802 191.714 57.2224 191.651 57.2858C191.418 57.4971 191.207 57.6873 190.953 57.8775C190.467 58.2579 189.96 58.6171 189.432 58.9552C189.284 59.0609 189.115 59.1454 188.967 59.2299C188.904 59.2511 188.861 59.2933 188.798 59.3356C188.65 59.4201 188.481 59.5046 188.333 59.5892C188.312 59.6103 188.27 59.6103 188.249 59.6314C188.164 59.6737 188.079 59.716 188.016 59.7582C187.932 59.8005 187.826 59.8428 187.741 59.9061C187.657 59.9484 187.593 59.9695 187.509 60.0118C187.403 60.0752 187.276 60.1175 187.15 60.1809C186.896 60.2865 186.621 60.4133 186.347 60.4978C186.241 60.5401 186.135 60.5824 186.03 60.6035C185.903 60.6458 185.776 60.688 185.649 60.7303C185.523 60.7725 185.375 60.8148 185.227 60.8571C185.079 60.8993 184.952 60.9416 184.804 60.9627C184.656 61.005 184.508 61.0261 184.36 61.0684C184.064 61.1318 183.747 61.1952 183.452 61.2586C183.304 61.2797 183.135 61.3008 182.987 61.322C182.944 61.322 182.881 61.3431 182.839 61.3431C182.797 61.3431 182.733 61.3642 182.691 61.3642C182.48 61.3854 182.247 61.4276 182.036 61.4488C181.909 61.4699 181.761 61.4699 181.634 61.4699C181.571 61.4699 181.486 61.491 181.423 61.491C181.402 61.491 181.381 61.491 181.36 61.491C181.275 61.491 181.169 61.5122 181.085 61.5122C180.979 61.5122 180.874 61.5333 180.768 61.5333C180.662 61.5333 180.535 61.5333 180.43 61.5544C180.24 61.5544 180.071 61.5544 179.88 61.5544H166.863V57.4971H182.522C182.458 57.4337 182.374 57.3703 182.311 57.307C181.867 56.9054 181.423 56.4617 181.043 56.0179C180.366 55.2149 179.754 54.3696 179.225 53.461C178.655 52.4889 178.169 51.4323 177.788 50.3335C177.197 48.5373 176.837 46.72 176.753 44.8604V43.7404C176.753 41.2468 177.154 38.9012 177.957 36.7458C178.76 34.5692 179.923 32.6674 181.444 31.0614C182.966 29.4553 184.804 28.1874 186.959 27.2365C187.805 26.8773 188.692 26.5814 189.601 26.349C189.728 26.3278 189.876 26.2856 190.002 26.2644C190.15 26.2433 190.319 26.2011 190.467 26.1799C190.848 26.1165 191.228 26.0531 191.608 26.0109C191.989 25.9686 192.39 25.9263 192.792 25.9052C193.278 25.8629 193.785 25.8629 194.292 25.8629C194.842 25.8629 195.349 25.8841 195.877 25.9263C196.596 25.9686 197.272 26.0531 197.948 26.1799C199.385 26.4335 200.737 26.8561 201.942 27.4267C204.14 28.441 205.936 29.7723 207.373 31.4417C208.81 33.1111 209.909 35.0341 210.627 37.1684C211.092 38.5208 211.409 39.8944 211.578 41.2891C211.684 42.0498 211.747 42.8951 211.747 43.7404Z" fill="black"/>
<path d="M83.4985 57.4972H80.7936C81.0049 57.4972 81.2162 57.4972 81.4064 57.4761C81.5755 57.4761 81.7657 57.455 81.9347 57.455C82.0192 57.455 82.0826 57.455 82.1672 57.4338C82.294 57.4338 82.4207 57.4127 82.5264 57.4127C82.6109 57.4127 82.6743 57.3916 82.7589 57.3916C82.9279 57.3704 83.0758 57.3493 83.2449 57.3282H83.266H83.2872C83.3505 57.3704 83.4351 57.4338 83.4985 57.4972Z" fill="black"/>
<path d="M56.6189 38.3942V50.08C56.6189 54.8769 53.6605 58.9976 49.4553 60.7093C48.4832 61.1108 47.4478 61.3644 46.3701 61.4912C45.9686 61.5334 45.5459 61.5546 45.1233 61.5546C44.7006 61.5546 44.278 61.5334 43.8765 61.4912C43.3905 61.4278 42.9045 61.3432 42.4396 61.2376C37.4102 60.0331 33.6488 55.4898 33.6488 50.08V25.7786H37.8751V50.08C37.8751 53.8838 40.8335 57.0113 44.5739 57.3071C44.764 57.3282 44.9331 57.3282 45.1233 57.3282C45.3135 57.3282 45.4825 57.3282 45.6727 57.3071C49.413 57.0324 52.3715 53.9049 52.3715 50.08V38.3942H56.6189Z" fill="black"/>
<path d="M98.5865 16.8398C98.5865 18.5304 97.213 19.8828 95.5435 19.8828C93.853 19.8828 92.5006 18.5092 92.5006 16.8398C92.5006 15.1704 93.8741 13.7969 95.5435 13.7969C97.213 13.7757 98.5865 15.1493 98.5865 16.8398Z" fill="black"/>
<path d="M54.7593 25.9052C56.4399 25.9052 57.8023 24.5429 57.8023 22.8623C57.8023 21.1817 56.4399 19.8193 54.7593 19.8193C53.0787 19.8193 51.7164 21.1817 51.7164 22.8623C51.7164 24.5429 53.0787 25.9052 54.7593 25.9052Z" fill="black"/>
<path d="M54.7593 33.2802C56.4399 33.2802 57.8023 31.9178 57.8023 30.2372C57.8023 28.5567 56.4399 27.1943 54.7593 27.1943C53.0787 27.1943 51.7164 28.5567 51.7164 30.2372C51.7164 31.9178 53.0787 33.2802 54.7593 33.2802Z" fill="black"/>
<path d="M3.78967 40.6552C5.47026 40.6552 6.83264 39.2928 6.83264 37.6122C6.83264 35.9316 5.47026 34.5692 3.78967 34.5692C2.10909 34.5692 0.746704 35.9316 0.746704 37.6122C0.746704 39.2928 2.10909 40.6552 3.78967 40.6552Z" fill="black"/>
<path d="M3.78967 48.0302C5.47026 48.0302 6.83264 46.6679 6.83264 44.9873C6.83264 43.3067 5.47026 41.9443 3.78967 41.9443C2.10909 41.9443 0.746704 43.3067 0.746704 44.9873C0.746704 46.6679 2.10909 48.0302 3.78967 48.0302Z" fill="black"/>
<path d="M166.779 0.652832V2.4279L128.995 24.2358L128.382 22.82L166.779 0.652832Z" fill="black"/>
<path d="M41.3619 98.7041L36.882 82.2214V98.7041H33.4586V79.3897H39.2698L43.4962 95.6612L47.7648 79.3897H53.5338V98.7041H50.1104V82.2214L45.6516 98.7041H41.3619Z" fill="black"/>
<path d="M71.5801 98.4505C70.6926 98.8097 69.7417 98.9999 68.7062 98.9999C67.6708 98.9999 66.7198 98.8097 65.8323 98.4505C64.9448 98.0912 64.184 97.5841 63.529 96.9713C62.8739 96.3373 62.3667 95.5977 61.9863 94.7313C61.606 93.8649 61.4158 92.9351 61.4158 91.9419C61.4158 90.9487 61.606 90.0189 61.9863 89.1525C62.3667 88.2861 62.8739 87.5465 63.529 86.8914C64.184 86.2575 64.9448 85.7503 65.8323 85.37C66.7198 85.0107 67.6708 84.8205 68.7062 84.8205C69.7417 84.8205 70.6926 85.0107 71.5801 85.37C72.4677 85.7292 73.2284 86.2364 73.8835 86.8914C74.5386 87.5254 75.0457 88.2861 75.4261 89.1525C75.8065 90.0189 75.9967 90.9487 75.9967 91.9419C75.9967 92.9351 75.8065 93.886 75.4261 94.7313C75.0457 95.5977 74.5386 96.3373 73.8835 96.9713C73.2284 97.5841 72.4677 98.0912 71.5801 98.4505ZM67.1425 95.4287C67.6074 95.6188 68.1357 95.7245 68.7062 95.7245C69.2768 95.7245 69.8262 95.6188 70.27 95.4287C70.7349 95.2385 71.1152 94.9638 71.4534 94.6256C71.7703 94.2875 72.0239 93.886 72.2141 93.4C72.3832 92.9351 72.4677 92.428 72.4677 91.9208C72.4677 91.3925 72.3832 90.9065 72.2141 90.4416C72.045 89.9767 71.7915 89.5752 71.4534 89.2159C71.1364 88.8778 70.7349 88.6031 70.27 88.3918C69.8051 88.1805 69.2768 88.0748 68.7062 88.0748C68.1357 88.0748 67.5863 88.1805 67.1425 88.3918C66.6987 88.6031 66.2972 88.8778 65.9591 89.2159C65.6421 89.554 65.3885 89.9555 65.1984 90.4416C65.0293 90.9065 64.9448 91.4136 64.9448 91.9208C64.9448 92.4491 65.0293 92.9351 65.1984 93.4C65.3674 93.8649 65.621 94.2664 65.9591 94.6256C66.2761 94.9638 66.6776 95.2385 67.1425 95.4287Z" fill="black"/>
<path d="M83.4562 98.7041V79.3897H86.795V91.8997L91.7821 85.3066H95.7337L90.7044 91.9631L96.0507 98.7252H92.0568L86.795 92.0899V98.7041H83.4562Z" fill="black"/>
<path d="M108.349 99C107.504 99 106.701 98.9154 105.94 98.7675C105.18 98.5984 104.503 98.3449 103.912 98.0068C103.341 97.6475 102.876 97.2038 102.517 96.6332C102.158 96.0626 101.989 95.3653 101.989 94.5412C101.989 93.8015 102.137 93.1253 102.454 92.5548C102.771 91.9842 103.193 91.4982 103.743 91.1178C104.292 90.7375 104.947 90.4416 105.729 90.2514C106.49 90.0612 107.335 89.9556 108.244 89.9556C108.603 89.9556 109.004 89.9767 109.448 89.9978C109.892 90.019 110.357 90.0824 110.864 90.1458V89.9556C110.864 89.1948 110.568 88.6877 109.998 88.413C109.427 88.1382 108.687 88.0115 107.758 88.0115C107.398 88.0115 107.018 88.0537 106.617 88.1171C106.194 88.1805 105.792 88.265 105.37 88.3707C104.947 88.4764 104.546 88.6032 104.144 88.7511C103.743 88.899 103.383 89.0469 103.045 89.1948L103.468 85.7926C104.017 85.5179 104.694 85.2855 105.539 85.0953C106.384 84.9051 107.272 84.7994 108.201 84.7994C109.068 84.7994 109.85 84.9051 110.589 85.0953C111.329 85.2855 111.942 85.5813 112.491 86.0039C113.019 86.4266 113.442 86.9549 113.738 87.6522C114.034 88.3284 114.182 89.1526 114.182 90.1246V97.9434C113.315 98.2815 112.385 98.5351 111.371 98.7252C110.357 98.9154 109.364 99 108.349 99ZM110.864 92.8929C110.547 92.8084 110.188 92.745 109.765 92.6816C109.343 92.6182 108.962 92.597 108.603 92.597C108.18 92.597 107.779 92.6182 107.398 92.6816C107.018 92.745 106.701 92.8295 106.405 92.9774C106.109 93.1042 105.898 93.2944 105.729 93.5057C105.56 93.7382 105.475 93.9917 105.475 94.3087C105.475 94.9215 105.75 95.3653 106.321 95.5977C106.891 95.8302 107.589 95.957 108.413 95.957C108.835 95.957 109.237 95.9359 109.681 95.8513C110.124 95.7668 110.505 95.6823 110.864 95.5555V92.8929Z" fill="black"/>
<path d="M121.219 85.3066H123.754V84.0175C123.754 82.4115 124.177 81.2493 125.022 80.5097C125.868 79.7701 127.22 79.4108 129.08 79.4108H132.271V82.5172H129.101C128.678 82.5172 128.319 82.5595 128.065 82.644C127.812 82.7285 127.6 82.8553 127.452 83.0455C127.305 83.2145 127.199 83.447 127.157 83.7217C127.114 83.9964 127.093 84.3134 127.093 84.6726V85.3488H132.186V88.4552H127.093V98.7675H123.754V88.4552H121.219V85.3066Z" fill="black"/>
<path d="M144.59 99C143.745 99 142.942 98.9154 142.181 98.7675C141.42 98.5984 140.744 98.3449 140.153 98.0068C139.582 97.6475 139.117 97.2038 138.758 96.6332C138.399 96.0626 138.23 95.3653 138.23 94.5412C138.23 93.8015 138.377 93.1253 138.694 92.5548C139.011 91.9842 139.434 91.4982 139.983 91.1178C140.533 90.7375 141.188 90.4416 141.97 90.2514C142.731 90.0612 143.576 89.9556 144.485 89.9556C144.844 89.9556 145.245 89.9767 145.689 89.9978C146.133 90.019 146.598 90.0824 147.105 90.1458V89.9556C147.105 89.1948 146.809 88.6877 146.238 88.413C145.668 88.1382 144.928 88.0115 143.999 88.0115C143.639 88.0115 143.259 88.0537 142.857 88.1171C142.435 88.1805 142.033 88.265 141.611 88.3707C141.188 88.4764 140.786 88.6032 140.385 88.7511C139.983 88.899 139.624 89.0469 139.286 89.1948L139.709 85.7926C140.258 85.5179 140.934 85.2855 141.78 85.0953C142.625 84.9051 143.512 84.7994 144.442 84.7994C145.309 84.7994 146.091 84.9051 146.83 85.0953C147.57 85.2855 148.183 85.5813 148.732 86.0039C149.26 86.4266 149.683 86.9549 149.979 87.6522C150.275 88.3284 150.423 89.1526 150.423 90.1246V97.9434C149.556 98.2815 148.626 98.5351 147.612 98.7252C146.598 98.9154 145.605 99 144.59 99ZM147.105 92.8929C146.788 92.8084 146.429 92.745 146.006 92.6816C145.583 92.6182 145.203 92.597 144.844 92.597C144.421 92.597 144.02 92.6182 143.639 92.6816C143.259 92.745 142.942 92.8295 142.646 92.9774C142.35 93.1042 142.139 93.2944 141.97 93.5057C141.801 93.7382 141.716 93.9917 141.716 94.3087C141.716 94.9215 141.991 95.3653 142.562 95.5977C143.132 95.8302 143.829 95.957 144.654 95.957C145.076 95.957 145.478 95.9359 145.921 95.8513C146.365 95.7668 146.746 95.6823 147.105 95.5555V92.8929Z" fill="black"/>
<path d="M157.333 85.3066H159.869V80.404H163.207V85.3066H168.3V88.4129H163.207V93.2732C163.207 93.7381 163.25 94.1185 163.334 94.4144C163.419 94.7102 163.545 94.9638 163.736 95.1328C163.926 95.3019 164.179 95.4287 164.475 95.5132C164.771 95.5977 165.151 95.64 165.595 95.64H168.406V98.7464H165.236C164.306 98.7464 163.503 98.683 162.827 98.535C162.151 98.3871 161.601 98.1547 161.158 97.8166C160.714 97.4784 160.397 97.0558 160.185 96.5064C159.974 95.957 159.869 95.2807 159.869 94.4777V88.4341H157.333V85.3066Z" fill="black"/>
<path d="M177.83 83.1934C177.302 83.1934 176.858 83.0455 176.457 82.7497C176.076 82.4538 175.865 82.01 175.865 81.4184C175.865 80.8901 176.055 80.4674 176.436 80.1505C176.816 79.8335 177.281 79.6644 177.83 79.6644C178.38 79.6644 178.845 79.8335 179.204 80.1505C179.563 80.4674 179.753 80.9112 179.753 81.4184C179.753 81.9678 179.584 82.3904 179.225 82.7074C178.866 83.0455 178.401 83.1934 177.83 83.1934ZM176.161 85.3066H179.5V98.7252H176.161V85.3066Z" fill="black"/>
</svg>
