<svg width="212" height="99" viewBox="0 0 212 99" fill="none" xmlns="http://www.w3.org/2000/svg">
<path d="M28.3657 26.6446C26.654 27.2574 25.1326 28.145 23.8013 29.3706C22.5122 30.5962 21.4556 32.1177 20.6526 33.8928C19.8708 35.689 19.4904 37.781 19.4904 40.19V57.4969H15.3908C14.0595 57.4969 12.7705 57.2856 11.566 56.8207C10.3615 56.3769 9.3049 55.7219 8.41737 54.8343C7.52984 53.9679 6.79023 52.8691 6.2408 51.58H1.73975C1.9088 52.2351 2.12012 52.8479 2.3737 53.4185C3.15557 55.2147 4.21216 56.6939 5.52232 57.8984C6.83249 59.1241 8.35397 60.0327 10.0445 60.6033C11.7562 61.2161 13.5312 61.5119 15.3697 61.5119H23.7167V40.19C23.7167 38.4361 23.9914 36.9358 24.5197 35.6256C25.048 34.3366 25.7665 33.2377 26.654 32.3713C27.5627 31.526 28.6193 30.871 29.8027 30.4272C31.0072 29.9834 32.2751 29.751 33.6275 29.751V25.7571C31.8313 25.7782 30.0774 26.0741 28.3657 26.6446Z" fill="white"/>
<path d="M166.821 57.4971V61.5544C164.982 61.5544 163.228 61.2585 161.538 60.6457C159.805 60.0751 158.305 59.1665 157.016 57.962C155.832 56.842 154.86 55.5107 154.099 53.9469C153.635 54.6866 153.106 55.3628 152.557 56.0179C151.12 57.6661 149.324 58.9974 147.126 60.0118C144.949 61.0261 142.414 61.5544 139.476 61.5544H131.425C129.587 61.5544 127.833 61.2585 126.121 60.6457C124.409 60.0751 122.888 59.1665 121.578 57.962C120.289 56.7363 119.232 55.2148 118.429 53.4398C117.668 51.6436 117.267 49.5515 117.182 47.1003V17.4947H121.472V47.0791C121.472 48.8119 121.747 50.3334 122.317 51.6436C122.867 52.9326 123.564 54.0103 124.452 54.8979C125.381 55.7643 126.417 56.4405 127.6 56.8843C128.805 57.3069 130.073 57.5182 131.425 57.5182H139.476C141.737 57.5182 143.682 57.1167 145.33 56.3137C146.978 55.5107 148.352 54.4541 149.429 53.1651C150.507 51.8549 151.289 50.3968 151.796 48.7697C152.346 47.1214 152.599 45.452 152.599 43.7403C152.599 42.0075 152.324 40.2959 151.796 38.6265C151.289 36.957 150.486 35.4567 149.387 34.1677C148.309 32.8575 146.957 31.822 145.309 31.019C143.682 30.216 141.737 29.7934 139.476 29.7723H131.425L129.671 25.8206L166.779 4.39307V9.35902L138.272 25.8206H139.476C142.371 25.8206 144.928 26.3278 147.126 27.3632C149.324 28.3776 151.12 29.7089 152.557 31.3783C154.015 33.0477 155.093 34.9707 155.811 37.105C156.551 39.2815 156.91 41.4792 156.91 43.7403V47.0791C156.91 48.8119 157.185 50.3334 157.713 51.6436C158.241 52.9326 158.96 54.0103 159.868 54.8979C160.777 55.7643 161.834 56.4194 163.038 56.842C164.222 57.2858 165.468 57.4971 166.821 57.4971Z" fill="white"/>
<path d="M112.724 43.7402C112.724 44.5854 112.66 45.4307 112.576 46.2548C112.407 47.6284 112.111 49.002 111.646 50.3333C110.927 52.4676 109.85 54.3483 108.392 56.0388C107.8 56.715 107.145 57.349 106.426 57.9195C105.412 58.7437 104.25 59.441 102.961 60.0327C101.524 60.7089 99.9389 61.1527 98.2061 61.3852V57.2645C99.305 57.0743 100.298 56.7573 101.186 56.3135C102.475 55.6796 103.595 54.9188 104.525 53.9891C104.672 53.8411 104.82 53.6932 104.947 53.5453L104.968 53.5242C105.074 53.4185 105.18 53.2917 105.285 53.1649C106.363 51.8547 107.145 50.3967 107.673 48.7695C108.18 47.1212 108.455 45.4518 108.476 43.7402C108.476 42.0074 108.201 40.2957 107.673 38.6263C107.166 36.9569 106.363 35.4565 105.264 34.1675C104.186 32.8573 102.834 31.8219 101.186 31.0189C100.192 30.5328 99.0725 30.1736 97.8258 29.9834H97.7835C97.382 29.92 96.9382 29.8778 96.5156 29.8355C96.3677 29.8144 96.2197 29.8144 96.0718 29.8144C95.945 29.8144 95.8394 29.7932 95.7126 29.7932C95.5647 29.7932 95.4379 29.7721 95.2899 29.7721H95.2265C95.0364 29.7721 94.8673 29.7721 94.6983 29.7721C94.4869 29.7721 94.2968 29.7932 94.1066 29.7932C93.8953 29.8144 93.6839 29.8144 93.4726 29.8566C93.1134 29.8989 92.7541 29.9412 92.416 30.0046C91.3806 30.1947 90.4085 30.4694 89.521 30.8709C89.1195 31.0611 88.718 31.2725 88.3376 31.4838C88.1474 31.5894 87.9572 31.7162 87.7671 31.8219C87.7248 31.843 87.6825 31.8853 87.6403 31.9064C86.7739 32.477 86.0131 33.1532 85.358 33.9139C85.0833 34.2309 84.8297 34.569 84.5973 34.9282L84.5762 34.9494C83.8366 35.9848 83.266 37.1471 82.8434 38.415C82.2939 40.0844 81.9981 41.8594 81.9981 43.7402C81.9981 45.4941 82.2728 47.1846 82.8011 48.8329C83.0758 49.657 83.3928 50.4178 83.7943 51.1363C84.1958 51.8759 84.6818 52.5732 85.2312 53.2072C85.992 54.137 86.9007 54.9188 87.9572 55.5739C88.401 55.8486 88.8659 56.1022 89.3519 56.3347C90.3451 56.7996 91.4228 57.1166 92.6062 57.3067C92.3949 57.5181 92.1624 57.7082 91.93 57.8984C91.444 58.2788 90.9368 58.638 90.4085 58.9761C90.2606 59.0818 90.0915 59.1663 89.9436 59.2508C89.8802 59.272 89.838 59.3142 89.7746 59.3565C89.6266 59.441 89.4576 59.5256 89.3097 59.6101C89.2885 59.6312 89.2463 59.6312 89.2251 59.6524C89.1406 59.6946 89.0561 59.7369 88.9927 59.7791C88.9082 59.8214 88.8025 59.8637 88.718 59.9271C88.6335 59.9693 88.5701 59.9905 88.4855 60.0327C88.3799 60.0961 88.2531 60.1384 88.1263 60.2018C87.8727 60.3074 87.598 60.4342 87.3233 60.5187C87.2176 60.561 87.112 60.6033 87.0063 60.6244C86.8795 60.6667 86.7527 60.7089 86.6259 60.7512C86.4992 60.7935 86.3512 60.8357 86.2033 60.878C86.0554 60.9202 85.9286 60.9625 85.7807 60.9836C85.6328 61.0259 85.4848 61.047 85.3369 61.0893C85.0411 61.1527 84.7241 61.2161 84.4282 61.2795C84.2803 61.3006 84.1113 61.3218 83.9633 61.3429C83.9211 61.3429 83.8577 61.364 83.8154 61.364C83.7732 61.364 83.7098 61.3852 83.6675 61.3852C83.4562 61.4063 83.2237 61.4485 83.0124 61.4697C82.8856 61.4908 82.7377 61.4908 82.6109 61.4908C82.5475 61.4908 82.463 61.5119 82.3996 61.5119C82.3785 61.5119 82.3573 61.5119 82.3362 61.5119C82.2517 61.5119 82.146 61.5331 82.0615 61.5331C81.9558 61.5331 81.8502 61.5542 81.7445 61.5542C81.6389 61.5542 81.5121 61.5542 81.4064 61.5753C81.2162 61.5753 81.0472 61.5753 80.857 61.5753H77.7295C75.891 61.5753 74.1371 61.2795 72.4254 60.6667C70.7138 60.0961 69.1923 59.1874 67.861 57.9829C67.8398 57.9618 67.8398 57.9618 67.8398 57.9618C66.5719 56.7362 65.5154 55.2358 64.7123 53.4608C63.9516 51.6646 63.5501 49.5725 63.4656 47.1212V5.02686H67.7553V47.079C67.7553 48.8118 68.03 50.3333 68.6006 51.6434C69.1289 52.9325 69.8474 54.0102 70.7349 54.8977C71.6436 55.7641 72.7001 56.4403 73.8835 56.8841C75.088 57.3067 76.3559 57.5181 77.7084 57.5181H83.5407C83.4773 57.4547 83.3928 57.3913 83.3294 57.3279C82.8856 56.9264 82.4419 56.4826 82.0615 56.0388C81.3853 55.2358 80.7725 54.3905 80.2442 53.4819C79.6736 52.5098 79.1876 51.4532 78.8072 50.3544C78.2155 48.5582 77.8563 46.7409 77.7717 44.8813V43.7613C77.7717 41.2678 78.1733 38.9221 78.9763 36.7667C79.7793 34.5901 80.9415 32.6883 82.463 31.0823C83.9845 29.4763 85.8229 28.2084 87.9784 27.2574C88.9504 26.8348 89.9648 26.5178 91.0213 26.2854C91.1693 26.2642 91.3383 26.222 91.4862 26.2008C91.8666 26.1374 92.247 26.074 92.6273 26.0318C93.0077 25.9895 93.4092 25.9473 93.8107 25.9261C94.0432 25.905 94.2968 25.905 94.5503 25.8839C94.7828 25.8839 95.0152 25.8627 95.2477 25.8627H95.3111C95.6069 25.8627 95.9028 25.8627 96.1986 25.8839C96.3465 25.8839 96.4945 25.905 96.6424 25.905C96.7058 25.905 96.7903 25.905 96.8537 25.9261H96.896C97.6144 25.9684 98.2906 26.0529 98.9669 26.1797C100.404 26.4333 101.756 26.8559 102.961 27.4265C105.158 28.4408 106.955 29.7721 108.392 31.4415C109.829 33.1109 110.927 35.0339 111.646 37.1682C112.111 38.5206 112.428 39.8942 112.597 41.2889C112.66 42.0496 112.724 42.8949 112.724 43.7402Z" fill="white"/>
<path d="M182.522 57.4969H179.817C180.028 57.4969 180.24 57.4969 180.43 57.4758C180.599 57.4758 180.789 57.4547 180.958 57.4547C181.043 57.4547 181.106 57.4547 181.19 57.4335C181.317 57.4335 181.444 57.4124 181.55 57.4124C181.634 57.4124 181.698 57.3913 181.782 57.3913C181.951 57.3701 182.12 57.349 182.289 57.3279H182.31C182.395 57.3701 182.458 57.4335 182.522 57.4969Z" fill="white"/>
<path d="M211.747 43.7402C211.747 44.5855 211.684 45.4308 211.599 46.2549C211.43 47.6285 211.134 49.002 210.669 50.3333C209.951 52.4676 208.873 54.3484 207.415 56.0389C206.823 56.7151 206.168 57.3491 205.45 57.9196L203.527 53.9891C203.675 53.8412 203.823 53.6933 203.971 53.5242C204.076 53.4186 204.182 53.2918 204.288 53.165C205.365 51.8548 206.147 50.3967 206.675 48.7696C207.183 47.1213 207.457 45.4519 207.478 43.7402C207.478 42.0074 207.204 40.2958 206.675 38.6264C206.168 36.9569 205.365 35.4566 204.266 34.1676C203.189 32.8574 201.836 31.8219 200.188 31.0189C199.195 30.5329 198.075 30.1737 196.828 29.9835H196.807C196.405 29.9201 195.962 29.8778 195.539 29.8356C195.138 29.8144 194.736 29.7933 194.313 29.7722C193.912 29.7722 193.51 29.7933 193.109 29.8144C192.898 29.8356 192.686 29.8356 192.475 29.8778C192.116 29.9201 191.756 29.9623 191.418 30.0257C191.165 30.068 190.911 30.1314 190.658 30.1737C189.897 30.3427 189.2 30.5752 188.544 30.8921C188.143 31.0823 187.741 31.2936 187.361 31.505C187.171 31.6106 186.981 31.7374 186.79 31.8431C186.748 31.8642 186.706 31.9065 186.664 31.9276C185.797 32.4981 185.037 33.1744 184.381 33.9351C184.107 34.2521 183.853 34.5902 183.621 34.9494L183.6 34.9706C182.86 36.006 182.289 37.1683 181.867 38.4362C181.317 40.1056 181.022 41.8806 181.022 43.7614C181.022 45.5153 181.296 47.2058 181.825 48.8541C182.099 49.6782 182.416 50.439 182.818 51.1575C183.219 51.8971 183.705 52.5944 184.255 53.2284C185.015 54.1582 185.924 54.94 186.981 55.5951C187.002 55.574 187.044 55.5529 187.065 55.5529C187.086 55.5317 187.129 55.5106 187.15 55.4895C187.298 55.4049 187.424 55.2993 187.551 55.2148C188.122 54.8132 188.65 54.3483 189.136 53.8623C189.242 53.7567 189.347 53.6299 189.453 53.5242C189.559 53.4186 189.664 53.2918 189.749 53.165C190.045 52.8057 190.341 52.4254 190.594 52.0239C190.679 51.8971 190.763 51.7703 190.848 51.6224C191.038 51.3054 191.228 50.9673 191.376 50.6292C191.524 50.3333 191.651 50.0164 191.778 49.6994C191.904 49.4035 192.01 49.0866 192.116 48.7696C192.137 48.7273 192.137 48.6851 192.158 48.6428C192.179 48.5583 192.2 48.4949 192.221 48.4103C192.242 48.3258 192.285 48.2413 192.306 48.1356C192.327 48.0511 192.348 47.9877 192.369 47.9032C192.39 47.8187 192.412 47.7553 192.433 47.6707C192.707 46.5719 192.876 45.4942 192.919 44.3742C192.919 44.2474 192.94 44.1206 192.94 43.9938C192.94 43.9093 192.94 43.8248 192.94 43.7402C192.94 43.5712 192.94 43.381 192.94 43.2119L195.285 41.6059L196.955 40.4648C196.997 40.7184 197.018 40.972 197.061 41.2256C197.166 42.0708 197.208 42.895 197.208 43.7402C197.208 44.5855 197.145 45.4308 197.061 46.2549V46.276C196.891 47.6496 196.596 49.002 196.152 50.3333C195.708 51.6224 195.138 52.8269 194.44 53.9468C193.975 54.6865 193.447 55.3627 192.898 56.0178C192.813 56.1023 192.729 56.2079 192.665 56.2925C192.538 56.4404 192.412 56.5672 192.264 56.7151C192.116 56.863 191.989 56.9898 191.841 57.1166C191.778 57.18 191.714 57.2223 191.651 57.2857C191.418 57.497 191.207 57.6872 190.953 57.8773C190.467 58.2577 189.96 58.617 189.432 58.9551C189.284 59.0607 189.115 59.1453 188.967 59.2298C188.904 59.2509 188.861 59.2932 188.798 59.3354C188.65 59.42 188.481 59.5045 188.333 59.589C188.312 59.6102 188.27 59.6102 188.249 59.6313C188.164 59.6735 188.08 59.7158 188.016 59.7581C187.932 59.8003 187.826 59.8426 187.741 59.906C187.657 59.9483 187.593 59.9694 187.509 60.0117C187.403 60.0751 187.277 60.1173 187.15 60.1807C186.896 60.2864 186.621 60.4132 186.347 60.4977C186.241 60.5399 186.135 60.5822 186.03 60.6033C185.903 60.6456 185.776 60.6879 185.649 60.7301C185.523 60.7724 185.375 60.8147 185.227 60.8569C185.079 60.8992 184.952 60.9415 184.804 60.9626C184.656 61.0048 184.508 61.026 184.36 61.0682C184.064 61.1316 183.748 61.195 183.452 61.2584C183.304 61.2796 183.135 61.3007 182.987 61.3218C182.945 61.3218 182.881 61.343 182.839 61.343C182.797 61.343 182.733 61.3641 182.691 61.3641C182.48 61.3852 182.247 61.4275 182.036 61.4486C181.909 61.4697 181.761 61.4697 181.634 61.4697C181.571 61.4697 181.486 61.4909 181.423 61.4909C181.402 61.4909 181.381 61.4909 181.36 61.4909C181.275 61.4909 181.169 61.512 181.085 61.512C180.979 61.512 180.874 61.5331 180.768 61.5331C180.662 61.5331 180.535 61.5331 180.43 61.5543C180.24 61.5543 180.071 61.5543 179.88 61.5543H166.863V57.497H182.522C182.458 57.4336 182.374 57.3702 182.311 57.3068C181.867 56.9053 181.423 56.4615 181.043 56.0178C180.366 55.2148 179.754 54.3695 179.225 53.4608C178.655 52.4888 178.169 51.4322 177.788 50.3333C177.197 48.5371 176.837 46.7198 176.753 44.8602V43.7402C176.753 41.2467 177.154 38.9011 177.957 36.7456C178.76 34.5691 179.923 32.6672 181.444 31.0612C182.966 29.4552 184.804 28.1873 186.96 27.2364C187.805 26.8771 188.692 26.5813 189.601 26.3488C189.728 26.3277 189.876 26.2854 190.003 26.2643C190.15 26.2432 190.319 26.2009 190.467 26.1798C190.848 26.1164 191.228 26.053 191.609 26.0107C191.989 25.9684 192.39 25.9262 192.792 25.9051C193.278 25.8628 193.785 25.8628 194.292 25.8628C194.842 25.8628 195.349 25.8839 195.877 25.9262C196.596 25.9684 197.272 26.053 197.948 26.1798C199.385 26.4333 200.737 26.856 201.942 27.4265C204.14 28.4409 205.936 29.7722 207.373 31.4416C208.81 33.111 209.909 35.034 210.627 37.1683C211.092 38.5207 211.409 39.8943 211.578 41.2889C211.684 42.0497 211.747 42.895 211.747 43.7402Z" fill="white"/>
<path d="M83.4983 57.4972H80.7935C81.0048 57.4972 81.2161 57.4972 81.4063 57.476C81.5753 57.476 81.7655 57.4549 81.9346 57.4549C82.0191 57.4549 82.0825 57.4549 82.167 57.4338C82.2938 57.4338 82.4206 57.4127 82.5263 57.4127C82.6108 57.4127 82.6742 57.3915 82.7587 57.3915C82.9278 57.3704 83.0757 57.3493 83.2447 57.3281H83.2659H83.287C83.3504 57.3704 83.4349 57.4338 83.4983 57.4972Z" fill="white"/>
<path d="M56.6189 38.394V50.0798C56.6189 54.8767 53.6604 58.9974 49.4552 60.7091C48.4831 61.1106 47.4477 61.3641 46.37 61.4909C45.9685 61.5332 45.5458 61.5543 45.1232 61.5543C44.7006 61.5543 44.2779 61.5332 43.8764 61.4909C43.3904 61.4275 42.9044 61.343 42.4395 61.2373C37.4101 60.0328 33.6487 55.4895 33.6487 50.0798V25.7783H37.875V50.0798C37.875 53.8835 40.8335 57.011 44.5738 57.3069C44.764 57.328 44.933 57.328 45.1232 57.328C45.3134 57.328 45.4824 57.328 45.6726 57.3069C49.4129 57.0321 52.3714 53.9046 52.3714 50.0798V38.394H56.6189Z" fill="white"/>
<path d="M98.5864 16.8396C98.5864 18.5301 97.2129 19.8826 95.5435 19.8826C93.8529 19.8826 92.5005 18.509 92.5005 16.8396C92.5005 15.1702 93.874 13.7966 95.5435 13.7966C97.2129 13.7755 98.5864 15.1491 98.5864 16.8396Z" fill="white"/>
<path d="M54.7593 25.905C56.4399 25.905 57.8022 24.5426 57.8022 22.8621C57.8022 21.1815 56.4399 19.8191 54.7593 19.8191C53.0787 19.8191 51.7163 21.1815 51.7163 22.8621C51.7163 24.5426 53.0787 25.905 54.7593 25.905Z" fill="white"/>
<path d="M54.7593 33.28C56.4399 33.28 57.8022 31.9176 57.8022 30.2371C57.8022 28.5565 56.4399 27.1941 54.7593 27.1941C53.0787 27.1941 51.7163 28.5565 51.7163 30.2371C51.7163 31.9176 53.0787 33.28 54.7593 33.28Z" fill="white"/>
<path d="M3.78955 40.655C5.47013 40.655 6.83252 39.2926 6.83252 37.6121C6.83252 35.9315 5.47013 34.5691 3.78955 34.5691C2.10897 34.5691 0.746582 35.9315 0.746582 37.6121C0.746582 39.2926 2.10897 40.655 3.78955 40.655Z" fill="white"/>
<path d="M3.78955 48.03C5.47013 48.03 6.83252 46.6676 6.83252 44.9871C6.83252 43.3065 5.47013 41.9441 3.78955 41.9441C2.10897 41.9441 0.746582 43.3065 0.746582 44.9871C0.746582 46.6676 2.10897 48.03 3.78955 48.03Z" fill="white"/>
<path d="M166.778 0.652832V2.4279L128.995 24.2358L128.382 22.82L166.778 0.652832Z" fill="white"/>
<path d="M41.3618 98.704L36.8818 82.2213V98.704H33.4585V79.3896H39.2697L43.4961 95.6611L47.7647 79.3896H53.5336V98.704H50.1103V82.2213L45.6515 98.704H41.3618Z" fill="white"/>
<path d="M71.5801 98.4504C70.6926 98.8096 69.7417 98.9998 68.7062 98.9998C67.6708 98.9998 66.7198 98.8096 65.8323 98.4504C64.9448 98.0912 64.184 97.584 63.5289 96.9712C62.8739 96.3372 62.3667 95.5976 61.9863 94.7312C61.606 93.8648 61.4158 92.935 61.4158 91.9418C61.4158 90.9486 61.606 90.0188 61.9863 89.1524C62.3667 88.286 62.8739 87.5464 63.5289 86.8914C64.184 86.2574 64.9448 85.7502 65.8323 85.3699C66.7198 85.0106 67.6708 84.8204 68.7062 84.8204C69.7417 84.8204 70.6926 85.0106 71.5801 85.3699C72.4677 85.7291 73.2284 86.2363 73.8835 86.8914C74.5386 87.5253 75.0457 88.286 75.4261 89.1524C75.8065 90.0188 75.9967 90.9486 75.9967 91.9418C75.9967 92.935 75.8065 93.8859 75.4261 94.7312C75.0457 95.5976 74.5386 96.3372 73.8835 96.9712C73.2284 97.584 72.4677 98.0912 71.5801 98.4504ZM67.1425 95.4286C67.6074 95.6187 68.1357 95.7244 68.7062 95.7244C69.2768 95.7244 69.8262 95.6187 70.27 95.4286C70.7349 95.2384 71.1152 94.9637 71.4533 94.6256C71.7703 94.2874 72.0239 93.886 72.2141 93.3999C72.3831 92.935 72.4677 92.4279 72.4677 91.9207C72.4677 91.3924 72.3831 90.9064 72.2141 90.4415C72.045 89.9766 71.7914 89.5751 71.4533 89.2158C71.1364 88.8777 70.7349 88.603 70.27 88.3917C69.8051 88.1804 69.2768 88.0747 68.7062 88.0747C68.1357 88.0747 67.5862 88.1804 67.1425 88.3917C66.6987 88.603 66.2972 88.8777 65.9591 89.2158C65.6421 89.554 65.3885 89.9555 65.1983 90.4415C65.0293 90.9064 64.9448 91.4135 64.9448 91.9207C64.9448 92.449 65.0293 92.935 65.1983 93.3999C65.3674 93.8648 65.621 94.2663 65.9591 94.6256C66.2761 94.9637 66.6776 95.2384 67.1425 95.4286Z" fill="white"/>
<path d="M83.4561 98.704V79.3896H86.7949V91.8996L91.782 85.3065H95.7336L90.7042 91.963L96.0506 98.7252H92.0567L86.7949 92.0898V98.704H83.4561Z" fill="white"/>
<path d="M108.349 98.9998C107.504 98.9998 106.701 98.9153 105.94 98.7674C105.179 98.5983 104.503 98.3447 103.912 98.0066C103.341 97.6474 102.876 97.2036 102.517 96.6331C102.158 96.0625 101.989 95.3652 101.989 94.541C101.989 93.8014 102.136 93.1252 102.453 92.5547C102.77 91.9841 103.193 91.4981 103.742 91.1177C104.292 90.7373 104.947 90.4415 105.729 90.2513C106.49 90.0611 107.335 89.9555 108.244 89.9555C108.603 89.9555 109.004 89.9766 109.448 89.9977C109.892 90.0188 110.357 90.0822 110.864 90.1456V89.9555C110.864 89.1947 110.568 88.6875 109.997 88.4128C109.427 88.1381 108.687 88.0113 107.757 88.0113C107.398 88.0113 107.018 88.0536 106.616 88.117C106.194 88.1804 105.792 88.2649 105.37 88.3706C104.947 88.4762 104.545 88.603 104.144 88.751C103.742 88.8989 103.383 89.0468 103.045 89.1947L103.468 85.7925C104.017 85.5178 104.693 85.2854 105.539 85.0952C106.384 84.905 107.271 84.7993 108.201 84.7993C109.068 84.7993 109.85 84.905 110.589 85.0952C111.329 85.2854 111.942 85.5812 112.491 86.0038C113.019 86.4265 113.442 86.9548 113.738 87.6521C114.034 88.3283 114.182 89.1525 114.182 90.1245V97.9432C113.315 98.2814 112.385 98.5349 111.371 98.7251C110.357 98.9153 109.363 98.9998 108.349 98.9998ZM110.864 92.8928C110.547 92.8082 110.188 92.7448 109.765 92.6814C109.342 92.6181 108.962 92.5969 108.603 92.5969C108.18 92.5969 107.779 92.6181 107.398 92.6814C107.018 92.7448 106.701 92.8294 106.405 92.9773C106.109 93.1041 105.898 93.2943 105.729 93.5056C105.56 93.738 105.475 93.9916 105.475 94.3086C105.475 94.9214 105.75 95.3652 106.321 95.5976C106.891 95.8301 107.588 95.9569 108.413 95.9569C108.835 95.9569 109.237 95.9357 109.68 95.8512C110.124 95.7667 110.505 95.6822 110.864 95.5554V92.8928Z" fill="white"/>
<path d="M121.219 85.3065H123.754V84.0175C123.754 82.4115 124.177 81.2492 125.022 80.5096C125.867 79.77 127.22 79.4108 129.079 79.4108H132.27V82.5171H129.101C128.678 82.5171 128.319 82.5594 128.065 82.6439C127.812 82.7284 127.6 82.8552 127.452 83.0454C127.304 83.2145 127.199 83.4469 127.157 83.7216C127.114 83.9964 127.093 84.3133 127.093 84.6726V85.3488H132.186V88.4551H127.093V98.7674H123.754V88.4551H121.219V85.3065Z" fill="white"/>
<path d="M144.59 98.9998C143.745 98.9998 142.942 98.9153 142.181 98.7674C141.42 98.5983 140.744 98.3447 140.152 98.0066C139.582 97.6474 139.117 97.2036 138.758 96.6331C138.399 96.0625 138.229 95.3652 138.229 94.541C138.229 93.8014 138.377 93.1252 138.694 92.5547C139.011 91.9841 139.434 91.4981 139.983 91.1177C140.533 90.7373 141.188 90.4415 141.97 90.2513C142.731 90.0611 143.576 89.9555 144.484 89.9555C144.844 89.9555 145.245 89.9766 145.689 89.9977C146.133 90.0188 146.598 90.0822 147.105 90.1456V89.9555C147.105 89.1947 146.809 88.6875 146.238 88.4128C145.668 88.1381 144.928 88.0113 143.998 88.0113C143.639 88.0113 143.259 88.0536 142.857 88.117C142.435 88.1804 142.033 88.2649 141.611 88.3706C141.188 88.4762 140.786 88.603 140.385 88.751C139.983 88.8989 139.624 89.0468 139.286 89.1947L139.709 85.7925C140.258 85.5178 140.934 85.2854 141.78 85.0952C142.625 84.905 143.512 84.7993 144.442 84.7993C145.309 84.7993 146.09 84.905 146.83 85.0952C147.57 85.2854 148.183 85.5812 148.732 86.0038C149.26 86.4265 149.683 86.9548 149.979 87.6521C150.275 88.3283 150.422 89.1525 150.422 90.1245V97.9432C149.556 98.2814 148.626 98.5349 147.612 98.7251C146.598 98.9153 145.604 98.9998 144.59 98.9998ZM147.105 92.8928C146.788 92.8082 146.429 92.7448 146.006 92.6814C145.583 92.6181 145.203 92.5969 144.844 92.5969C144.421 92.5969 144.02 92.6181 143.639 92.6814C143.259 92.7448 142.942 92.8294 142.646 92.9773C142.35 93.1041 142.139 93.2943 141.97 93.5056C141.801 93.738 141.716 93.9916 141.716 94.3086C141.716 94.9214 141.991 95.3652 142.561 95.5976C143.132 95.8301 143.829 95.9569 144.654 95.9569C145.076 95.9569 145.478 95.9357 145.921 95.8512C146.365 95.7667 146.746 95.6822 147.105 95.5554V92.8928Z" fill="white"/>
<path d="M157.333 85.3065H159.868V80.4039H163.207V85.3065H168.3V88.4128H163.207V93.2731C163.207 93.738 163.249 94.1184 163.334 94.4143C163.418 94.7101 163.545 94.9637 163.735 95.1327C163.926 95.3018 164.179 95.4286 164.475 95.5131C164.771 95.5976 165.151 95.6399 165.595 95.6399H168.406V98.7463H165.236C164.306 98.7463 163.503 98.6829 162.827 98.5349C162.151 98.387 161.601 98.1546 161.157 97.8165C160.714 97.4784 160.397 97.0557 160.185 96.5063C159.974 95.9569 159.868 95.2807 159.868 94.4777V88.434H157.333V85.3065Z" fill="white"/>
<path d="M177.83 83.1933C177.302 83.1933 176.858 83.0454 176.457 82.7495C176.076 82.4537 175.865 82.0099 175.865 81.4182C175.865 80.8899 176.055 80.4673 176.436 80.1503C176.816 79.8334 177.281 79.6643 177.83 79.6643C178.38 79.6643 178.845 79.8334 179.204 80.1503C179.563 80.4673 179.753 80.9111 179.753 81.4182C179.753 81.9677 179.584 82.3903 179.225 82.7073C178.866 83.0454 178.401 83.1933 177.83 83.1933ZM176.161 85.3065H179.5V98.7251H176.161V85.3065Z" fill="white"/>
</svg>
