<svg width="1300" height="1100" viewBox="0 0 1300 1100" fill="none" xmlns="http://www.w3.org/2000/svg">
<rect width="1300" height="1100" fill="url(#paint0_linear_1030_9196)"/>
<path d="M488.29 501.915C484.739 503.186 481.583 505.027 478.822 507.57C476.148 510.112 473.956 513.268 472.291 516.95C470.669 520.676 469.88 525.015 469.88 530.012V565.912H461.376C458.615 565.912 455.941 565.473 453.443 564.509C450.944 563.589 448.752 562.23 446.911 560.389C445.07 558.592 443.536 556.312 442.397 553.638H433.06C433.411 554.997 433.849 556.268 434.375 557.452C435.997 561.178 438.189 564.246 440.906 566.745C443.624 569.287 446.78 571.172 450.287 572.355C453.837 573.626 457.519 574.24 461.333 574.24H478.647V530.012C478.647 526.374 479.216 523.262 480.312 520.544C481.408 517.871 482.898 515.591 484.739 513.794C486.624 512.041 488.816 510.682 491.271 509.761C493.769 508.841 496.399 508.359 499.204 508.359V500.074C495.479 500.118 491.84 500.732 488.29 501.915Z" fill="#F5F5F5"/>
<path d="M775.486 565.911V574.327C771.672 574.327 768.034 573.714 764.528 572.442C760.933 571.259 757.821 569.374 755.147 566.876C752.693 564.552 750.676 561.791 749.098 558.547C748.134 560.081 747.038 561.484 745.898 562.843C742.918 566.262 739.192 569.023 734.633 571.127C730.118 573.231 724.858 574.327 718.766 574.327H702.065C698.252 574.327 694.613 573.714 691.063 572.442C687.512 571.259 684.356 569.374 681.639 566.876C678.965 564.333 676.773 561.177 675.108 557.495C673.53 553.769 672.697 549.43 672.521 544.345V482.935H681.42V544.301C681.42 547.896 681.989 551.052 683.173 553.769C684.313 556.443 685.759 558.679 687.6 560.52C689.529 562.317 691.677 563.72 694.131 564.64C696.63 565.517 699.26 565.955 702.065 565.955H718.766C723.456 565.955 727.488 565.122 730.907 563.457C734.326 561.791 737.176 559.599 739.411 556.925C741.647 554.208 743.268 551.183 744.32 547.808C745.46 544.389 745.986 540.926 745.986 537.376C745.986 533.782 745.416 530.231 744.32 526.768C743.268 523.305 741.603 520.193 739.323 517.519C737.088 514.802 734.283 512.654 730.864 510.988C727.488 509.323 723.456 508.446 718.766 508.402H702.065L698.427 500.205L775.398 455.758V466.059L716.267 500.205H718.766C724.771 500.205 730.075 501.257 734.633 503.405C739.192 505.509 742.918 508.271 745.898 511.733C748.923 515.196 751.158 519.185 752.649 523.612C754.183 528.127 754.928 532.686 754.928 537.376V544.301C754.928 547.896 755.498 551.052 756.594 553.769C757.69 556.443 759.18 558.679 761.065 560.52C762.95 562.317 765.141 563.676 767.64 564.552C770.094 565.473 772.681 565.911 775.486 565.911Z" fill="#F5F5F5"/>
<path d="M663.273 537.375C663.273 539.129 663.141 540.882 662.966 542.591C662.615 545.441 662.002 548.29 661.037 551.051C659.547 555.478 657.312 559.38 654.287 562.886C653.06 564.289 651.701 565.604 650.211 566.787C648.107 568.497 645.696 569.943 643.022 571.171C640.041 572.573 636.754 573.494 633.16 573.976V565.429C635.439 565.034 637.499 564.377 639.34 563.456C642.014 562.141 644.337 560.563 646.266 558.634C646.573 558.328 646.879 558.021 647.142 557.714L647.186 557.67C647.405 557.451 647.625 557.188 647.844 556.925C650.079 554.207 651.701 551.183 652.797 547.808C653.849 544.389 654.419 540.926 654.462 537.375C654.462 533.781 653.893 530.23 652.797 526.768C651.745 523.305 650.079 520.193 647.8 517.519C645.564 514.801 642.759 512.653 639.34 510.988C637.28 509.98 634.957 509.234 632.371 508.84H632.283C631.45 508.708 630.53 508.621 629.653 508.533C629.346 508.489 629.039 508.489 628.732 508.489C628.469 508.489 628.25 508.445 627.987 508.445C627.68 508.445 627.417 508.402 627.111 508.402H626.979C626.585 508.402 626.234 508.402 625.883 508.402C625.445 508.402 625.05 508.445 624.656 508.445C624.218 508.489 623.779 508.489 623.341 508.577C622.596 508.665 621.851 508.752 621.149 508.884C619.001 509.278 616.985 509.848 615.144 510.681C614.311 511.075 613.478 511.514 612.689 511.952C612.295 512.171 611.9 512.434 611.506 512.653C611.418 512.697 611.331 512.785 611.243 512.829C609.446 514.012 607.868 515.415 606.509 516.993C605.939 517.65 605.413 518.352 604.931 519.097L604.887 519.141C603.353 521.288 602.169 523.699 601.293 526.329C600.153 529.792 599.539 533.474 599.539 537.375C599.539 541.013 600.109 544.52 601.205 547.939C601.775 549.649 602.432 551.227 603.265 552.717C604.098 554.251 605.106 555.698 606.246 557.013C607.824 558.941 609.709 560.563 611.9 561.922C612.821 562.492 613.785 563.018 614.793 563.5C616.854 564.464 619.089 565.122 621.544 565.516C621.105 565.955 620.623 566.349 620.141 566.744C619.133 567.533 618.081 568.278 616.985 568.979C616.678 569.198 616.328 569.374 616.021 569.549C615.889 569.593 615.802 569.68 615.67 569.768C615.363 569.943 615.013 570.119 614.706 570.294C614.662 570.338 614.574 570.338 614.53 570.382C614.355 570.469 614.18 570.557 614.048 570.645C613.873 570.732 613.654 570.82 613.478 570.952C613.303 571.039 613.172 571.083 612.996 571.171C612.777 571.302 612.514 571.39 612.251 571.521C611.725 571.741 611.155 572.004 610.585 572.179C610.366 572.267 610.147 572.354 609.928 572.398C609.665 572.486 609.402 572.573 609.139 572.661C608.876 572.749 608.569 572.836 608.262 572.924C607.955 573.012 607.692 573.099 607.386 573.143C607.079 573.231 606.772 573.275 606.465 573.362C605.851 573.494 605.194 573.625 604.58 573.757C604.273 573.801 603.923 573.845 603.616 573.888C603.528 573.888 603.397 573.932 603.309 573.932C603.221 573.932 603.09 573.976 603.002 573.976C602.564 574.02 602.082 574.108 601.643 574.151C601.38 574.195 601.074 574.195 600.811 574.195C600.679 574.195 600.504 574.239 600.372 574.239C600.328 574.239 600.285 574.239 600.241 574.239C600.065 574.239 599.846 574.283 599.671 574.283C599.452 574.283 599.233 574.327 599.013 574.327C598.794 574.327 598.531 574.327 598.312 574.371C597.918 574.371 597.567 574.371 597.172 574.371H590.685C586.872 574.371 583.233 573.757 579.683 572.486C576.132 571.302 572.976 569.417 570.215 566.919C570.171 566.875 570.171 566.875 570.171 566.875C567.541 564.333 565.349 561.221 563.684 557.539C562.106 553.813 561.273 549.473 561.098 544.389V457.073H569.996V544.301C569.996 547.895 570.566 551.051 571.749 553.769C572.845 556.443 574.335 558.678 576.176 560.519C578.061 562.316 580.253 563.719 582.707 564.64C585.206 565.516 587.836 565.955 590.641 565.955H602.739C602.608 565.823 602.432 565.692 602.301 565.56C601.38 564.727 600.46 563.807 599.671 562.886C598.268 561.221 596.997 559.467 595.901 557.582C594.718 555.566 593.71 553.374 592.921 551.095C591.693 547.369 590.948 543.6 590.773 539.742V537.419C590.773 532.247 591.606 527.381 593.271 522.91C594.937 518.395 597.348 514.45 600.504 511.119C603.66 507.788 607.473 505.158 611.944 503.185C613.961 502.309 616.065 501.651 618.256 501.169C618.563 501.125 618.914 501.038 619.221 500.994C620.01 500.862 620.799 500.731 621.588 500.643C622.377 500.555 623.209 500.468 624.042 500.424C624.524 500.38 625.05 500.38 625.576 500.336C626.059 500.336 626.541 500.292 627.023 500.292H627.154C627.768 500.292 628.382 500.292 628.995 500.336C629.302 500.336 629.609 500.38 629.916 500.38C630.047 500.38 630.223 500.38 630.354 500.424H630.442C631.932 500.512 633.335 500.687 634.738 500.95C637.718 501.476 640.524 502.353 643.022 503.536C647.581 505.64 651.307 508.402 654.287 511.864C657.268 515.327 659.547 519.316 661.037 523.743C662.002 526.548 662.659 529.398 663.01 532.291C663.141 533.869 663.273 535.622 663.273 537.375Z" fill="#F5F5F5"/>
<path d="M808.054 565.911H802.443C802.882 565.911 803.32 565.911 803.715 565.867C804.065 565.867 804.46 565.824 804.81 565.824C804.986 565.824 805.117 565.824 805.293 565.78C805.556 565.78 805.819 565.736 806.038 565.736C806.213 565.736 806.345 565.692 806.52 565.692C806.871 565.648 807.221 565.604 807.572 565.561H807.616C807.791 565.648 807.923 565.78 808.054 565.911Z" fill="#F5F5F5"/>
<path d="M868.676 537.375C868.676 539.129 868.545 540.882 868.369 542.592C868.019 545.441 867.405 548.29 866.441 551.051C864.95 555.479 862.715 559.38 859.69 562.886C858.463 564.289 857.104 565.604 855.614 566.788L851.625 558.635C851.932 558.328 852.239 558.021 852.545 557.67C852.765 557.451 852.984 557.188 853.203 556.925C855.438 554.207 857.06 551.183 858.156 547.808C859.208 544.389 859.778 540.926 859.822 537.375C859.822 533.781 859.252 530.231 858.156 526.768C857.104 523.305 855.438 520.193 853.159 517.519C850.924 514.801 848.118 512.653 844.699 510.988C842.639 509.98 840.316 509.234 837.73 508.84H837.686C836.853 508.708 835.933 508.621 835.056 508.533C834.223 508.489 833.39 508.445 832.514 508.402C831.681 508.402 830.848 508.445 830.015 508.489C829.577 508.533 829.138 508.533 828.7 508.621C827.955 508.708 827.21 508.796 826.508 508.928C825.982 509.015 825.456 509.147 824.93 509.234C823.352 509.585 821.906 510.067 820.547 510.725C819.714 511.119 818.881 511.558 818.092 511.996C817.698 512.215 817.303 512.478 816.909 512.697C816.821 512.741 816.734 512.829 816.646 512.873C814.849 514.056 813.271 515.459 811.912 517.037C811.342 517.694 810.816 518.396 810.334 519.141L810.29 519.185C808.756 521.332 807.573 523.743 806.696 526.373C805.556 529.836 804.943 533.518 804.943 537.419C804.943 541.057 805.512 544.564 806.608 547.983C807.178 549.693 807.836 551.271 808.668 552.761C809.501 554.295 810.509 555.742 811.649 557.057C813.227 558.985 815.112 560.607 817.303 561.966C817.347 561.922 817.435 561.878 817.479 561.878C817.523 561.834 817.61 561.791 817.654 561.747C817.961 561.571 818.224 561.352 818.487 561.177C819.67 560.344 820.766 559.38 821.774 558.372C821.994 558.152 822.213 557.889 822.432 557.67C822.651 557.451 822.87 557.188 823.046 556.925C823.659 556.18 824.273 555.391 824.799 554.558C824.974 554.295 825.15 554.032 825.325 553.725C825.719 553.068 826.114 552.366 826.421 551.665C826.728 551.051 826.991 550.394 827.254 549.736C827.517 549.123 827.736 548.465 827.955 547.808C827.999 547.72 827.999 547.632 828.043 547.545C828.086 547.369 828.13 547.238 828.174 547.063C828.218 546.887 828.306 546.712 828.349 546.493C828.393 546.317 828.437 546.186 828.481 546.011C828.525 545.835 828.569 545.704 828.612 545.528C829.182 543.249 829.533 541.014 829.621 538.69C829.621 538.427 829.664 538.164 829.664 537.901C829.664 537.726 829.664 537.551 829.664 537.375C829.664 537.025 829.664 536.63 829.664 536.28L834.53 532.948L837.993 530.581C838.08 531.107 838.124 531.633 838.212 532.159C838.431 533.913 838.519 535.622 838.519 537.375C838.519 539.129 838.387 540.882 838.212 542.592V542.635C837.861 545.485 837.248 548.29 836.327 551.051C835.407 553.725 834.223 556.224 832.777 558.547C831.812 560.081 830.716 561.484 829.577 562.843C829.401 563.018 829.226 563.237 829.095 563.412C828.832 563.719 828.569 563.982 828.262 564.289C827.955 564.596 827.692 564.859 827.385 565.122C827.254 565.253 827.122 565.341 826.991 565.473C826.508 565.911 826.07 566.305 825.544 566.7C824.536 567.489 823.484 568.234 822.388 568.935C822.081 569.155 821.731 569.33 821.424 569.505C821.292 569.549 821.205 569.637 821.073 569.724C820.766 569.9 820.416 570.075 820.109 570.25C820.065 570.294 819.977 570.294 819.933 570.338C819.758 570.426 819.583 570.513 819.451 570.601C819.276 570.689 819.057 570.776 818.881 570.908C818.706 570.996 818.575 571.039 818.399 571.127C818.18 571.259 817.917 571.346 817.654 571.478C817.128 571.697 816.558 571.96 815.988 572.135C815.769 572.223 815.55 572.311 815.331 572.354C815.068 572.442 814.805 572.53 814.542 572.617C814.279 572.705 813.972 572.793 813.665 572.88C813.358 572.968 813.095 573.056 812.789 573.1C812.482 573.187 812.175 573.231 811.868 573.319C811.254 573.45 810.597 573.582 809.983 573.713C809.676 573.757 809.326 573.801 809.019 573.845C808.931 573.845 808.8 573.889 808.712 573.889C808.624 573.889 808.493 573.932 808.405 573.932C807.967 573.976 807.485 574.064 807.046 574.108C806.783 574.152 806.477 574.152 806.214 574.152C806.082 574.152 805.907 574.195 805.775 574.195C805.731 574.195 805.688 574.195 805.644 574.195C805.468 574.195 805.249 574.239 805.074 574.239C804.855 574.239 804.636 574.283 804.417 574.283C804.197 574.283 803.934 574.283 803.715 574.327C803.321 574.327 802.97 574.327 802.575 574.327H775.574V565.911H808.055C807.923 565.779 807.748 565.648 807.616 565.516C806.696 564.684 805.775 563.763 804.986 562.843C803.584 561.177 802.313 559.424 801.217 557.539C800.033 555.522 799.025 553.331 798.236 551.051C797.009 547.326 796.264 543.556 796.088 539.699V537.375C796.088 532.203 796.921 527.338 798.587 522.867C800.252 518.352 802.663 514.407 805.819 511.075C808.975 507.744 812.789 505.114 817.26 503.142C819.013 502.396 820.854 501.783 822.739 501.301C823.002 501.257 823.309 501.169 823.572 501.125C823.878 501.081 824.229 500.994 824.536 500.95C825.325 500.818 826.114 500.687 826.903 500.599C827.692 500.512 828.525 500.424 829.358 500.38C830.366 500.292 831.418 500.292 832.47 500.292C833.609 500.292 834.661 500.336 835.757 500.424C837.248 500.512 838.65 500.687 840.053 500.95C843.034 501.476 845.839 502.353 848.337 503.536C852.896 505.64 856.622 508.402 859.603 511.864C862.583 515.327 864.863 519.316 866.353 523.743C867.317 526.549 867.975 529.398 868.325 532.291C868.545 533.869 868.676 535.622 868.676 537.375Z" fill="#F5F5F5"/>
<path d="M602.651 565.911H597.041C597.479 565.911 597.917 565.911 598.312 565.867C598.662 565.867 599.057 565.824 599.408 565.824C599.583 565.824 599.714 565.824 599.89 565.78C600.153 565.78 600.416 565.736 600.635 565.736C600.81 565.736 600.942 565.692 601.117 565.692C601.468 565.648 601.775 565.604 602.125 565.561H602.169H602.213C602.344 565.648 602.52 565.78 602.651 565.911Z" fill="#F5F5F5"/>
<path d="M546.896 526.286V550.525C546.896 560.476 540.759 569.023 532.036 572.574C530.02 573.406 527.872 573.932 525.637 574.195C524.804 574.283 523.927 574.327 523.05 574.327C522.174 574.327 521.297 574.283 520.464 574.195C519.456 574.064 518.448 573.889 517.484 573.669C507.051 571.171 499.249 561.747 499.249 550.525V500.117H508.016V550.525C508.016 558.415 514.152 564.903 521.911 565.516C522.305 565.56 522.656 565.56 523.05 565.56C523.445 565.56 523.796 565.56 524.19 565.516C531.949 564.947 538.085 558.459 538.085 550.525V526.286H546.896Z" fill="#F5F5F5"/>
<path d="M633.948 481.576C633.948 485.083 631.099 487.888 627.636 487.888C624.13 487.888 621.324 485.039 621.324 481.576C621.324 478.113 624.173 475.264 627.636 475.264C631.099 475.22 633.948 478.069 633.948 481.576Z" fill="#F5F5F5"/>
<path d="M543.038 500.381C546.524 500.381 549.35 497.555 549.35 494.069C549.35 490.583 546.524 487.757 543.038 487.757C539.552 487.757 536.726 490.583 536.726 494.069C536.726 497.555 539.552 500.381 543.038 500.381Z" fill="#F5F5F5"/>
<path d="M543.038 515.679C546.524 515.679 549.35 512.853 549.35 509.367C549.35 505.881 546.524 503.055 543.038 503.055C539.552 503.055 536.726 505.881 536.726 509.367C536.726 512.853 539.552 515.679 543.038 515.679Z" fill="#F5F5F5"/>
<path d="M437.312 530.976C440.798 530.976 443.624 528.15 443.624 524.664C443.624 521.178 440.798 518.352 437.312 518.352C433.826 518.352 431 521.178 431 524.664C431 528.15 433.826 530.976 437.312 530.976Z" fill="#F5F5F5"/>
<path d="M437.312 546.274C440.798 546.274 443.624 543.448 443.624 539.962C443.624 536.476 440.798 533.65 437.312 533.65C433.826 533.65 431 536.476 431 539.962C431 543.448 433.826 546.274 437.312 546.274Z" fill="#F5F5F5"/>
<path d="M775.398 448V451.682L697.025 496.918L695.753 493.981L775.398 448Z" fill="#F5F5F5"/>
<path d="M515.248 651.386L505.955 617.196V651.386H498.854V611.323H510.908L519.675 645.074L528.529 611.323H540.496V651.386H533.395V617.196L524.146 651.386H515.248Z" fill="#F5F5F5"/>
<path d="M577.929 650.86C576.088 651.605 574.116 652 571.968 652C569.82 652 567.847 651.605 566.006 650.86C564.165 650.115 562.587 649.063 561.229 647.792C559.87 646.477 558.818 644.942 558.029 643.145C557.24 641.348 556.845 639.419 556.845 637.359C556.845 635.299 557.24 633.37 558.029 631.573C558.818 629.776 559.87 628.242 561.229 626.883C562.587 625.568 564.165 624.516 566.006 623.727C567.847 622.982 569.82 622.587 571.968 622.587C574.116 622.587 576.088 622.982 577.929 623.727C579.77 624.472 581.348 625.524 582.707 626.883C584.066 628.198 585.118 629.776 585.907 631.573C586.696 633.37 587.09 635.299 587.09 637.359C587.09 639.419 586.696 641.392 585.907 643.145C585.118 644.942 584.066 646.477 582.707 647.792C581.348 649.063 579.77 650.115 577.929 650.86ZM568.724 644.592C569.688 644.986 570.784 645.205 571.968 645.205C573.151 645.205 574.291 644.986 575.211 644.592C576.176 644.197 576.965 643.627 577.666 642.926C578.324 642.225 578.85 641.392 579.244 640.384C579.595 639.419 579.77 638.367 579.77 637.315C579.77 636.22 579.595 635.211 579.244 634.247C578.893 633.283 578.367 632.45 577.666 631.705C577.009 631.003 576.176 630.434 575.211 629.995C574.247 629.557 573.151 629.338 571.968 629.338C570.784 629.338 569.645 629.557 568.724 629.995C567.804 630.434 566.971 631.003 566.269 631.705C565.612 632.406 565.086 633.239 564.691 634.247C564.341 635.211 564.165 636.263 564.165 637.315C564.165 638.411 564.341 639.419 564.691 640.384C565.042 641.348 565.568 642.181 566.269 642.926C566.927 643.627 567.76 644.197 568.724 644.592Z" fill="#F5F5F5"/>
<path d="M602.563 651.386V611.323H609.489V637.272L619.834 623.596H628.031L617.598 637.404L628.688 651.43H620.404L609.489 637.667V651.386H602.563Z" fill="#F5F5F5"/>
<path d="M654.199 652C652.446 652 650.78 651.825 649.202 651.518C647.624 651.167 646.222 650.641 644.994 649.94C643.811 649.195 642.846 648.274 642.101 647.091C641.356 645.907 641.005 644.461 641.005 642.751C641.005 641.217 641.312 639.814 641.97 638.631C642.627 637.447 643.504 636.439 644.644 635.65C645.783 634.861 647.142 634.247 648.764 633.853C650.342 633.458 652.095 633.239 653.98 633.239C654.725 633.239 655.558 633.283 656.479 633.327C657.399 633.371 658.363 633.502 659.415 633.634V633.239C659.415 631.661 658.802 630.609 657.618 630.039C656.435 629.47 654.901 629.207 652.972 629.207C652.227 629.207 651.438 629.294 650.605 629.426C649.728 629.557 648.895 629.733 648.019 629.952C647.142 630.171 646.309 630.434 645.476 630.741C644.644 631.048 643.898 631.354 643.197 631.661L644.074 624.604C645.213 624.034 646.616 623.552 648.369 623.158C650.123 622.763 651.964 622.544 653.892 622.544C655.689 622.544 657.311 622.763 658.845 623.158C660.38 623.552 661.651 624.166 662.79 625.042C663.886 625.919 664.763 627.015 665.377 628.461C665.99 629.864 666.297 631.574 666.297 633.59V649.808C664.5 650.51 662.571 651.036 660.467 651.43C658.363 651.825 656.303 652 654.199 652ZM659.415 639.332C658.758 639.157 658.013 639.025 657.136 638.894C656.259 638.762 655.47 638.718 654.725 638.718C653.849 638.718 653.016 638.762 652.227 638.894C651.438 639.025 650.78 639.201 650.167 639.507C649.553 639.77 649.115 640.165 648.764 640.603C648.413 641.085 648.238 641.611 648.238 642.269C648.238 643.54 648.808 644.461 649.991 644.943C651.175 645.425 652.621 645.688 654.331 645.688C655.207 645.688 656.04 645.644 656.961 645.469C657.881 645.293 658.67 645.118 659.415 644.855V639.332Z" fill="#F5F5F5"/>
<path d="M680.893 623.596H686.153V620.922C686.153 617.591 687.03 615.18 688.783 613.646C690.536 612.112 693.342 611.367 697.199 611.367H703.818V617.81H697.243C696.366 617.81 695.621 617.898 695.095 618.073C694.569 618.249 694.131 618.512 693.824 618.906C693.517 619.257 693.298 619.739 693.21 620.309C693.123 620.879 693.079 621.536 693.079 622.281V623.684H703.643V630.127H693.079V651.518H686.153V630.127H680.893V623.596Z" fill="#F5F5F5"/>
<path d="M729.373 652C727.62 652 725.954 651.825 724.376 651.518C722.798 651.167 721.395 650.641 720.168 649.94C718.985 649.195 718.02 648.274 717.275 647.091C716.53 645.907 716.179 644.461 716.179 642.751C716.179 641.217 716.486 639.814 717.144 638.631C717.801 637.447 718.678 636.439 719.817 635.65C720.957 634.861 722.316 634.247 723.938 633.853C725.516 633.458 727.269 633.239 729.154 633.239C729.899 633.239 730.732 633.283 731.652 633.327C732.573 633.371 733.537 633.502 734.589 633.634V633.239C734.589 631.661 733.975 630.609 732.792 630.039C731.608 629.47 730.074 629.207 728.146 629.207C727.401 629.207 726.611 629.294 725.779 629.426C724.902 629.557 724.069 629.733 723.193 629.952C722.316 630.171 721.483 630.434 720.65 630.741C719.817 631.048 719.072 631.354 718.371 631.661L719.248 624.604C720.387 624.034 721.79 623.552 723.543 623.158C725.297 622.763 727.137 622.544 729.066 622.544C730.863 622.544 732.485 622.763 734.019 623.158C735.553 623.552 736.825 624.166 737.964 625.042C739.06 625.919 739.937 627.015 740.55 628.461C741.164 629.864 741.471 631.574 741.471 633.59V649.808C739.674 650.51 737.745 651.036 735.641 651.43C733.537 651.825 731.477 652 729.373 652ZM734.589 639.332C733.932 639.157 733.186 639.025 732.31 638.894C731.433 638.762 730.644 638.718 729.899 638.718C729.022 638.718 728.19 638.762 727.401 638.894C726.612 639.025 725.954 639.201 725.34 639.507C724.727 639.77 724.288 640.165 723.938 640.603C723.587 641.085 723.412 641.611 723.412 642.269C723.412 643.54 723.982 644.461 725.165 644.943C726.349 645.425 727.795 645.688 729.504 645.688C730.381 645.688 731.214 645.644 732.134 645.469C733.055 645.293 733.844 645.118 734.589 644.855V639.332Z" fill="#F5F5F5"/>
<path d="M755.805 623.596H761.065V613.427H767.99V623.596H778.554V630.04H767.99V640.121C767.99 641.086 768.078 641.875 768.253 642.488C768.429 643.102 768.692 643.628 769.086 643.979C769.481 644.329 770.007 644.592 770.62 644.768C771.234 644.943 772.023 645.031 772.944 645.031H778.773V651.474H772.198C770.27 651.474 768.604 651.343 767.201 651.036C765.799 650.729 764.659 650.247 763.739 649.545C762.818 648.844 762.161 647.967 761.722 646.828C761.284 645.688 761.065 644.285 761.065 642.62V630.083H755.805V623.596Z" fill="#F5F5F5"/>
<path d="M798.323 619.213C797.227 619.213 796.307 618.906 795.474 618.292C794.685 617.679 794.247 616.758 794.247 615.531C794.247 614.435 794.641 613.558 795.43 612.901C796.219 612.243 797.183 611.893 798.323 611.893C799.463 611.893 800.427 612.243 801.172 612.901C801.917 613.558 802.312 614.479 802.312 615.531C802.312 616.67 801.961 617.547 801.216 618.205C800.471 618.906 799.507 619.213 798.323 619.213ZM794.86 623.596H801.786V651.43H794.86V623.596Z" fill="#F5F5F5"/>
<defs>
<linearGradient id="paint0_linear_1030_9196" x1="650" y1="0" x2="650" y2="1100" gradientUnits="userSpaceOnUse">
<stop stop-color="#5299FF" stop-opacity="0.6"/>
<stop offset="1" stop-color="#B2659D" stop-opacity="0.8"/>
</linearGradient>
</defs>
</svg>
